<svg xmlns="http://www.w3.org/2000/svg" width="24" height="24" viewBox="0 0 24 24">
  <path d="M12 2L13.09 8.26L22 9L13.09 9.74L12 16L10.91 9.74L2 9L10.91 8.26L12 2M21 16V14L19 12H17L15 14V16H13V18H15V20H17V18H19V16H21M7 16V14L5 12H3L1 14V16H3V18H5V20H7V18H9V16H7Z" fill="#666"/>
  <path d="M12 2L13.09 8.26L22 9L13.09 9.74L12 16L10.91 9.74L2 9L10.91 8.26L12 2M21 16V14L19 12H17L15 14V16H13V18H15V20H17V18H19V16H21M7 16V14L5 12H3L1 14V16H3V18H5V20H7V18H9V16H7Z" fill="none" stroke="#444" stroke-width="0.5"/>
</svg>